<?xml version="1.0" encoding="UTF-8"?>
<svg version="1.1" viewBox="0 0 2048 1280" width="1280" height="1280" xmlns="http://www.w3.org/2000/svg">
<path transform="translate(574,251)" d="m0 0h904l-5 58-13 145-11 123-9 101-24 270-9 100-11 124-2 2-30 8-151 42-166 46-22 6-107-30-26-7-53-15-30-8-151-42-2-1-10-111-10-114-11-121-7-80-10-111-16-180-9-100-9-101z" fill="#264DE4"/>
<path transform="translate(743,439)" d="m0 0h565l1 4-9 101-8 90-8 88-8 92-5 54-7 77-4 47-2 23-7 3-34 9-86 24-72 20-33 9-38-10-24-7-58-16-65-18-35-10-12-3-1-4-14-157-1-17h113l1 1 7 81v8l17 4 44 12 36 10 23 6 9 1 55-15 67-18h2v-10l10-110 2-23 1-4h-392l-1-3-5-58-4-44v-8h412v-11l9-99v-5l-431-1-1-1-6-69-4-42z" fill="#FDFDFD"/>
<path transform="translate(1026,326)" d="m0 0h369v9l-4 44-9 101-5 58-5 52-3 36-6 68-3 36-4 40-4 47-3 33-5 57-4 43-4 47-2 21-5 56-4 40-9 3-21 6-26 7-35 10-34 9-13 4-26 7-42 12-19 5-21 6-26 7-18 5-9 2v-118l48-13 57-16 43-12 40-11 32-9 11-3 5-56 5-58 7-79 5-54 4-46 8-88 9-103 8-88v-3l-282-1z" fill="#2864F0"/>
<path transform="translate(1116)" d="m0 0h137v49l-1 1h-79v10h80v114l-2 1-135-1v-52h79v-10h-79z"/>
<path transform="translate(951)" d="m0 0h137v50h-80l1 9 79 1v114h-137v-52h80v-10h-80z"/>
<path transform="translate(773,781)" d="m0 0h392l-3 37-9 100-1 10-24 7-37 10-34 9-29 8h-6l4-1v-179h-253z" fill="#2965F1"/>
<path transform="translate(787)" d="m0 0h137v57h-80l1 57 79 1v57h-137z"/>
<path transform="translate(752,551)" d="m0 0 432 1 1 1-2 25-7 79-1 11h-412v-1h263v-114h-274z" fill="#2965F1"/>
</svg>
