<?xml version="1.0" encoding="UTF-8"?>
<svg version="1.1" viewBox="0 0 1280 1280" width="1280" height="1280" xmlns="http://www.w3.org/2000/svg">
<path transform="translate(606,64)" d="m0 0h68l34 3 34 5 33 7 30 8 36 12 32 13 29 14 21 11 25 15 18 12 14 10 16 12 17 14 10 9 8 7 16 15 11 11 7 8 12 13 9 11 12 15 14 19 14 21 15 25 10 18 14 28 13 31 12 34 8 28 8 34 6 37 3 28 1 14v68l-3 34-5 34-7 33-8 30-12 36-13 32-14 29-11 21-15 25-12 18-10 14-12 16-14 17-9 10-7 8-15 16-11 11-8 7-13 12-11 9-15 12-19 14-21 14-25 15-18 10-28 14-31 13-34 12-28 8-34 8-37 6-28 3-14 1h-68l-34-3-34-5-33-7-30-8-36-12-32-13-29-14-21-11-25-15-18-12-14-10-16-12-17-14-10-9-8-7-16-15-11-11-7-8-12-13-9-11-12-15-14-19-14-21-15-25-10-18-14-28-13-31-12-34-8-28-7-30-5-27-4-31-2-25v-68l3-34 5-34 7-33 8-30 12-36 13-32 14-29 11-21 15-25 12-18 10-14 12-16 14-17 9-10 7-8 15-16 11-11 8-7 13-12 11-9 15-12 19-14 21-14 25-15 18-10 28-14 31-13 34-12 28-8 34-8 37-6 28-3z" fill="#E34C25"/>
<path transform="translate(392,428)" d="m0 0h496l-44 493-1 12-9 3-180 50-11 3h-7l-198-55-1-1-44-494z" fill="#FEFEFE"/>
<path transform="translate(484,529)" d="m0 0h310l1 1-2 30-3 34h-238l7 61 223 1v12l-14 170-1 10-24 7-99 27h-7l-123-33-2-1-9-91v-7h63l5 45 1 3 67 19 16-4 52-15h2l1-19 5-59-214-1-1-1-17-184z" fill="#E34C25"/>
<path transform="translate(645,291)" d="m0 0h33l12 19 7 12 2 1 2-5 15-25 2-2h33v93l-31 1-1-46-10 16-10 15h-3l-16-25-4-6-1 46h-30z" fill="#FEFEFE"/>
<path transform="translate(439,291)" d="m0 0h31v31h29v-31h31v94h-31v-32h-29v31l-31 1z" fill="#FEFEFE"/>
<path transform="translate(544,291)" d="m0 0h87v30h-28v64h-31l-1-63-27-1z" fill="#FEFEFE"/>
<path transform="translate(767,291)" d="m0 0h31v63h44v31h-75z" fill="#FEFEFE"/>
</svg>
