<?xml version="1.0" encoding="UTF-8"?>
<svg version="1.1" viewBox="0 0 1600 864" width="1280" height="1280" xmlns="http://www.w3.org/2000/svg">
<path transform="translate(779,22)" d="m0 0h42l58 2 33 2 44 4 40 5 41 6 32 6 48 10 35 9 42 12 30 10 26 9 28 11 34 15 25 12 17 9 12 6 27 16 17 11 16 11 19 14 17 14 10 9 8 7 24 24 9 11 13 16 14 21 12 21 11 24 9 29 4 20 2 17v33l-3 24-5 20-5 16-7 17-9 19-12 20-12 17-8 10-9 11-12 13-22 22-11 9-10 9-20 15-14 10-15 10-21 13-21 12-22 12-23 11-29 13-33 13-33 12-34 11-47 13-33 8-32 7-52 9-49 7-51 5-40 3-64 2h-40l-63-2-54-4-44-5-50-7-44-8-45-10-28-7-29-8-41-13-29-10-33-13-19-8-15-7-29-14-19-10-26-15-23-15-12-8-16-12-14-11-13-11-11-10-8-7-15-15-9-11-9-10-14-19-10-16-9-16-11-24-9-27-5-26-2-22v-16l2-23 5-26 9-27 11-24 6-11 11-18 14-19 12-14 7-8 3-4h2l2-4 14-14 8-7 10-9 28-22 17-12 12-8 21-13 35-20 16-8 34-16 32-13 29-11 35-12 30-9 29-8 33-8 38-8 21-4 41-7 56-7 56-5 44-2z" fill="#7579B1"/>
<path transform="translate(723,125)" d="m0 0h97l8 4 4 6 1 3v8l-16 82-1 6h81l27 3 23 5 16 6 12 6 11 8 10 10 9 14 5 13 3 15 1 2 14-71 4-6 5-4 3-1h196l24 3 21 5 19 7 15 8 14 10 16 16 10 15 7 14 5 15 3 14 1 9v33l-3 22-4 18-8 24-11 23-12 18-8 10-11 12-12 12-14 11-14 9-19 10-20 7-16 4-18 3-22 2h-90l-2 13-16 83-4 8-5 4-3 1h-100l-6-4-4-5-1-3v-9l17-87 1-3-4 2h-101l-6-4-4-5-1-2v-11l19-97 14-72 3-18v-16l-2-4-9-3-5-1-74-1-5 27-16 83-16 82-6 30-3 6-6 5-2 1h-99l-6-3-4-5-2-5v-7l14-73-12 17-12 14-15 15-14 11-10 7-16 9-16 7-23 7-23 4-22 2h-90l-2 13-16 83-4 8-5 4-3 1h-100l-6-4-4-5-1-3v-9l40-206 16-82 20-103 4-20 4-6 5-4 3-1h195l24 3 22 5 19 7 15 8 11 8 10 9 8 8 11 16 8 17 4 12 2 9 13-66 25-129 3-9 7-6z" fill="#F9FAFB"/>
<path transform="translate(348,251)" d="m0 0h183l19 1 24 5 13 4 9 4 14 7 12 9 12 12 7 10 8 16 3 7 4 17 1 11v25l-2 20-6 26-6 16-8 17-7 12-9 12-11 13-13 13-14 11-12 8-17 9-12 5-29 7-40 4h-94l-1 12-7 34-2 12-10 50h-89l2-12 6-32 7-34 6-32 9-46 6-32 7-34 7-37 3-16 6-29 3-16 3-18 6-28 7-37z"/>
<path transform="translate(1044,251)" d="m0 0h184l19 1 29 6 20 8 12 7 11 8 13 13 9 14 4 8 4 11 3 10 2 15v28l-3 24-4 17-6 19-10 20-6 9-3 5-9 12-11 12-11 11-14 11-12 8-19 9-9 4-14 4-16 3-39 4h-93l-4 24-6 28-6 32-5 24h-89l5-27 8-41 6-32 7-34 7-37 3-16 10-50 3-16 7-37 6-30 2-11 10-50 3-16z"/>
<path transform="translate(727,142)" d="m0 0h89l-5 27-10 51-2 11-4 20h93l20 1 25 4 15 4 12 5 13 8v2l4 2 7 7 6 11 4 11 2 8v36l-7 35-5 27-7 34-7 37-6 32-6 29-1 8h-90l1-11 3-12 3-16 5-25 3-16 7-37 8-41 6-31v-23l-4-10-7-6-6-3-14-3-10-1h-80l-3 18-6 28-7 37-7 36-5 25-3 18-6 28-8 44-1 1h-88l1-7 5-25 3-18 6-28 7-37 3-16 5-25 6-32 7-34 7-37 3-16 6-29 3-16 4-21 7-36z"/>
<path transform="translate(1128,62)" d="m0 0h9l44 12 19 6 36 12 37 14 35 15 33 16 25 13 27 16 17 11 16 11 19 14 17 14 10 9 8 7 24 24 9 11 13 16 14 21 12 21 11 24 9 29 4 20 2 17v33l-3 24-5 20-5 16-7 17-9 19-12 20-12 17-8 10-9 11-12 13-22 22-11 9-10 9-20 15-14 10-15 10-21 13-21 12-22 12-23 11-29 13-33 13-33 12-34 11-47 13-33 8-32 7-52 9-49 7-51 5-40 3-64 2h-40l-63-2-54-4-44-5-50-7-38-7-3-1v-2l-2-1h2v-2l31-4 19-2 20-3 8-3 85 8 56 3h102l56-3 56-5 39-5 45-7 41-8 40-9 45-12 41-13 29-10 33-13 27-12 29-14 25-13 28-17 27-18 16-12 16-13 10-9 8-7 19-19 9-11 10-12 11-16 8-13 12-23 9-24 6-25 2-14 1-22-2-27-5-23-5-16-8-20-11-21-16-24-8-10-9-11-12-13-16-16-8-7-13-11-13-10-18-13-20-13-20-12-18-10-23-12-25-12-33-14-40-15-46-15-43-12-6-2-3-21v-6z" fill="#494D89"/>
<path transform="translate(779,22)" d="m0 0h42l58 2 33 2 44 4 17 2-1 2h-4l1 7 3 13v6l-2 2-19-1-47-4-39-2-34-1h-58l-57 2-53 4-52 6-28 4-42 7-39 8-34 8-30 8-40 12-37 13-21 8-24 10-20 9-29 14-26 14-20 12-14 9-16 11-12 9-13 10-14 12-12 11-21 21-9 11-11 14-12 18-10 18-8 17-6 16-6 23-2 9-5-1-14-28-5-1 2-10 8-21 10-21 7-12 10-16 13-17 11-13 7-8 3-4h2l2-4 14-14 8-7 10-9 28-22 17-12 12-8 21-13 35-20 16-8 34-16 32-13 29-11 35-12 30-9 29-8 33-8 38-8 21-4 41-7 56-7 56-5 44-2z" fill="#ADB1D4"/>
<path transform="translate(424,315)" d="m0 0h74l21 2 15 4 13 7 9 8 6 12 2 8v32l-5 24-5 15-4 9-8 14-8 10h-2l-1 3-14 10-5 3-10 4-15 4-21 3h-75l1-9 4-24 5-25 6-29 7-37 5-25 4-21z" fill="#7579B1"/>
<path transform="translate(1121,315)" d="m0 0h74l21 2 15 4 15 8 9 10 5 12 1 8v25l-2 16-5 19-6 16-6 11-11 14-9 8-13 8-10 4-15 4-20 3h-76l1-11 10-50 7-37 6-29 4-23 4-21z" fill="#7579B1"/>
<path transform="translate(424,315)" d="m0 0h74l21 2 15 4 13 7 9 8 6 12 2 8v32l-5 24-5 15-4 9-8 14-8 10h-2l-1 3-14 10-5 3-10 4-15 4-21 3h-75l1-9 4-24 5-25 6-29 7-37 5-25 4-21zm14 17-4 17-16 83-7 36v2h52l21-3 17-5 13-7 9-8 9-13 6-13 5-16 4-21v-25l-4-11-4-5-12-6-11-3-18-2z" fill="#F9FAFB"/>
<path transform="translate(1121,315)" d="m0 0h74l21 2 15 4 15 8 9 10 5 12 1 8v25l-2 16-5 19-6 16-6 11-11 14-9 8-13 8-10 4-15 4-20 3h-76l1-11 10-50 7-37 6-29 4-23 4-21zm14 17-3 13-24 123v2h52l21-3 17-5 13-7 9-8 9-13 7-15 5-17 3-17 1-18-2-13-4-8-8-6-10-4-15-3-11-1z" fill="#FAFAFB"/>
<path transform="translate(606,798)" d="m0 0 85 8 56 3 93 1-2 4-31 16-11 5 1 3 6 1 17 1v1h-40l-63-2-54-4-44-5-50-7-38-7-3-1v-2l-2-1h2v-2l31-4 19-2 20-3z" fill="#575B95"/>
<path transform="translate(133,223)" d="m0 0 4 2 3 16 3 11-24 24-9 11-11 14-12 18-10 18-8 17-6 16-6 23-2 9-5-1-14-28-5-1 2-10 8-21 10-21 7-12 10-16 13-17 11-13 7-8 3-4h2l2-4 14-14 8-7z" fill="#9599C3"/>
<path transform="translate(821,23)" d="m0 0h34l44 2 57 5 17 2-1 2h-4l1 7 3 13v6l-2 2-19-1-47-4-39-2-34-1-18-1v-1h9l1-5-6-16 1-6z" fill="#9599C3"/>
<path transform="translate(1128,62)" d="m0 0h9l44 12 19 6 28 9-5 4v26l-11-3-34-11-43-12-6-2-3-21v-6z" fill="#565A94"/>
</svg>
